<svg width="80" height="80" viewBox="0 0 80 80" fill="none" xmlns="http://www.w3.org/2000/svg">
<g id="forward_to_inbox">
<mask id="mask0_95_549" style="mask-type:alpha" maskUnits="userSpaceOnUse" x="0" y="0" width="80" height="80">
<rect id="Bounding box" width="80" height="80" fill="#D9D9D9"/>
</mask>
<g mask="url(#mask0_95_549)">
<path id="forward_to_inbox_2" d="M63.3334 76.6666L58.6667 71.9999L63.9168 66.6666H50.0001V59.9999H63.9168L58.5834 54.6666L63.3334 49.9999L76.6667 63.3333L63.3334 76.6666ZM13.3334 66.6666C11.5001 66.6666 9.93064 66.0138 8.62508 64.7083C7.31953 63.4027 6.66675 61.8333 6.66675 59.9999V19.9999C6.66675 18.1666 7.31953 16.5971 8.62508 15.2916C9.93064 13.986 11.5001 13.3333 13.3334 13.3333H66.6667C68.5001 13.3333 70.0695 13.986 71.3751 15.2916C72.6806 16.5971 73.3334 18.1666 73.3334 19.9999V45.9999C71.8334 45.111 70.2362 44.4444 68.5417 43.9999C66.8473 43.5555 65.1112 43.3333 63.3334 43.3333C57.7779 43.3333 53.0556 45.2777 49.1667 49.1666C45.2779 53.0555 43.3334 57.7777 43.3334 63.3333V66.6666H13.3334ZM40.0001 43.3333L66.6667 26.6666V19.9999L40.0001 36.6666L13.3334 19.9999V26.6666L40.0001 43.3333Z" fill="#1C1B1F"/>
</g>
</g>
</svg>
