<svg width="68" height="68" viewBox="0 0 68 68" fill="none" xmlns="http://www.w3.org/2000/svg">
<g id="question_exchange">
<mask id="mask0_95_543" style="mask-type:alpha" maskUnits="userSpaceOnUse" x="0" y="0" width="68" height="68">
<rect id="Bounding box" width="68" height="68" fill="#D9D9D9"/>
</mask>
<g mask="url(#mask0_95_543)">
<path id="question_exchange_2" d="M33.9999 65.1668C28.711 65.1668 23.8471 63.9627 19.4083 61.5543C14.9694 59.146 11.3333 55.9349 8.49992 51.921V59.5002H2.83325V42.5002H19.8333V48.1668H12.8208C15.0874 51.5668 18.0742 54.3057 21.7812 56.3835C25.4881 58.4613 29.561 59.5002 33.9999 59.5002C37.5416 59.5002 40.8589 58.8272 43.952 57.4814C47.0451 56.1356 49.7367 54.3175 52.027 52.0273C54.3173 49.737 56.1353 47.0453 57.4812 43.9522C58.827 40.8592 59.4999 37.5418 59.4999 34.0002H65.1666C65.1666 38.2974 64.352 42.3349 62.7228 46.1127C61.0937 49.8904 58.8624 53.196 56.0291 56.0293C53.1958 58.8627 49.8902 61.0939 46.1124 62.7231C42.3346 64.3522 38.2971 65.1668 33.9999 65.1668ZM2.83325 34.0002C2.83325 29.7029 3.64784 25.6654 5.277 21.8877C6.90617 18.1099 9.13742 14.8043 11.9708 11.971C14.8041 9.13766 18.1096 6.90641 21.8874 5.27725C25.6652 3.64808 29.7027 2.8335 33.9999 2.8335C39.2888 2.8335 44.1527 4.03766 48.5916 6.446C53.0305 8.85433 56.6666 12.0654 59.4999 16.0793V8.50016H65.1666V25.5002H48.1666V19.8335H55.1791C52.9124 16.4335 49.9256 13.6946 46.2187 11.6168C42.5117 9.53905 38.4388 8.50016 33.9999 8.50016C30.4583 8.50016 27.1409 9.17308 24.0478 10.5189C20.9548 11.8647 18.2631 13.6828 15.9728 15.9731C13.6826 18.2634 11.8645 20.955 10.5187 24.0481C9.17284 27.1411 8.49992 30.4585 8.49992 34.0002H2.83325Z" fill="#1C1B1F"/>
</g>
</g>
</svg>
