<svg width="80" height="80" viewBox="0 0 80 80" fill="none" xmlns="http://www.w3.org/2000/svg">
<g id="local_shipping">
<mask id="mask0_95_531" style="mask-type:alpha" maskUnits="userSpaceOnUse" x="0" y="0" width="80" height="80">
<rect id="Bounding box" width="80" height="80" fill="#D9D9D9"/>
</mask>
<g mask="url(#mask0_95_531)">
<path id="local_shipping_2" d="M19.9999 66.6666C17.2221 66.6666 14.861 65.6944 12.9166 63.7499C10.9721 61.8055 9.99992 59.4444 9.99992 56.6666H3.33325V19.9999C3.33325 18.1666 3.98603 16.5971 5.29159 15.2916C6.59714 13.986 8.16659 13.3333 9.99992 13.3333H56.6666V26.6666H66.6666L76.6666 39.9999V56.6666H69.9999C69.9999 59.4444 69.0277 61.8055 67.0833 63.7499C65.1388 65.6944 62.7777 66.6666 59.9999 66.6666C57.2221 66.6666 54.861 65.6944 52.9166 63.7499C50.9721 61.8055 49.9999 59.4444 49.9999 56.6666H29.9999C29.9999 59.4444 29.0277 61.8055 27.0833 63.7499C25.1388 65.6944 22.7777 66.6666 19.9999 66.6666ZM19.9999 59.9999C20.9444 59.9999 21.736 59.6805 22.3749 59.0416C23.0138 58.4027 23.3333 57.611 23.3333 56.6666C23.3333 55.7221 23.0138 54.9305 22.3749 54.2916C21.736 53.6527 20.9444 53.3333 19.9999 53.3333C19.0555 53.3333 18.2638 53.6527 17.6249 54.2916C16.986 54.9305 16.6666 55.7221 16.6666 56.6666C16.6666 57.611 16.986 58.4027 17.6249 59.0416C18.2638 59.6805 19.0555 59.9999 19.9999 59.9999ZM59.9999 59.9999C60.9444 59.9999 61.736 59.6805 62.3749 59.0416C63.0138 58.4027 63.3333 57.611 63.3333 56.6666C63.3333 55.7221 63.0138 54.9305 62.3749 54.2916C61.736 53.6527 60.9444 53.3333 59.9999 53.3333C59.0555 53.3333 58.2638 53.6527 57.6249 54.2916C56.986 54.9305 56.6666 55.7221 56.6666 56.6666C56.6666 57.611 56.986 58.4027 57.6249 59.0416C58.2638 59.6805 59.0555 59.9999 59.9999 59.9999ZM56.6666 43.3333H70.8333L63.3333 33.3333H56.6666V43.3333Z" fill="#1C1B1F"/>
</g>
</g>
</svg>
