<svg width="45" height="46" viewBox="0 0 45 46" fill="none" xmlns="http://www.w3.org/2000/svg">
<g id="ri:instagram-line">
<path id="Vector" d="M22.2019 17.4495C20.7299 17.4495 19.3183 18.0342 18.2775 19.0751C17.2366 20.1159 16.6519 21.5276 16.6519 22.9995C16.6519 24.4715 17.2366 25.8831 18.2775 26.924C19.3183 27.9648 20.7299 28.5495 22.2019 28.5495C23.6738 28.5495 25.0855 27.9648 26.1263 26.924C27.1672 25.8831 27.7519 24.4715 27.7519 22.9995C27.7519 21.5276 27.1672 20.1159 26.1263 19.0751C25.0855 18.0342 23.6738 17.4495 22.2019 17.4495ZM22.2019 13.7495C24.6551 13.7495 27.0079 14.7241 28.7426 16.4588C30.4773 18.1935 31.4519 20.5463 31.4519 22.9995C31.4519 25.4528 30.4773 27.8055 28.7426 29.5403C27.0079 31.275 24.6551 32.2495 22.2019 32.2495C19.7486 32.2495 17.3959 31.275 15.6612 29.5403C13.9265 27.8055 12.9519 25.4528 12.9519 22.9995C12.9519 20.5463 13.9265 18.1935 15.6612 16.4588C17.3959 14.7241 19.7486 13.7495 22.2019 13.7495ZM34.2269 13.287C34.2269 13.9003 33.9833 14.4885 33.5496 14.9222C33.1159 15.3559 32.5277 15.5995 31.9144 15.5995C31.3011 15.5995 30.7129 15.3559 30.2792 14.9222C29.8455 14.4885 29.6019 13.9003 29.6019 13.287C29.6019 12.6737 29.8455 12.0855 30.2792 11.6518C30.7129 11.2182 31.3011 10.9745 31.9144 10.9745C32.5277 10.9745 33.1159 11.2182 33.5496 11.6518C33.9833 12.0855 34.2269 12.6737 34.2269 13.287ZM22.2019 8.19951C17.625 8.19951 16.8776 8.21246 14.7483 8.30681C13.2979 8.37526 12.3247 8.56951 11.422 8.92101C10.6664 9.1984 9.98342 9.643 9.42395 10.2216C8.84491 10.781 8.39971 11.464 8.12155 12.2196C7.77005 13.1261 7.5758 14.0973 7.5092 15.5459C7.413 17.5883 7.40005 18.3024 7.40005 22.9995C7.40005 27.5783 7.413 28.3238 7.50735 30.4532C7.5758 31.9017 7.77005 32.8767 8.1197 33.7776C8.4342 34.5824 8.8042 35.1614 9.4184 35.7756C10.0419 36.3972 10.6209 36.7691 11.4164 37.0762C12.3303 37.4295 13.3034 37.6256 14.7464 37.6922C16.7888 37.7884 17.5029 37.7995 22.2 37.7995C26.7788 37.7995 27.5243 37.7866 29.6537 37.6922C31.1004 37.6238 32.0735 37.4295 32.9781 37.0799C33.733 36.8011 34.4157 36.3567 34.9761 35.7793C35.5996 35.1577 35.9714 34.5787 36.2785 33.7813C36.63 32.8711 36.8261 31.898 36.8927 30.4513C36.9889 28.4108 37 27.6948 37 22.9995C37 18.4226 36.9871 17.6752 36.8927 15.5459C36.8243 14.0992 36.6282 13.1224 36.2785 12.2196C35.9997 11.4648 35.5553 10.7821 34.978 10.2216C34.4188 9.64223 33.7357 9.19697 32.98 8.91916C32.0735 8.56766 31.1004 8.37341 29.6537 8.30681C27.6131 8.21061 26.9009 8.19951 22.2019 8.19951ZM22.2019 4.49951C27.2283 4.49951 27.8555 4.51801 29.8294 4.61051C31.7978 4.70301 33.1409 5.01196 34.3194 5.47076C35.5404 5.94066 36.569 6.57706 37.5976 7.60381C38.5383 8.52862 39.2662 9.6473 39.7306 10.882C40.1876 12.0605 40.4984 13.4036 40.5909 15.3738C40.6778 17.3459 40.7019 17.9731 40.7019 22.9995C40.7019 28.026 40.6834 28.6531 40.5909 30.6252C40.4984 32.5955 40.1876 33.9367 39.7306 35.117C39.2675 36.3524 38.5394 37.4713 37.5976 38.3952C36.6725 39.3356 35.5539 40.0635 34.3194 40.5283C33.1409 40.9852 31.7978 41.296 29.8294 41.3885C27.8555 41.4755 27.2283 41.4995 22.2019 41.4995C17.1754 41.4995 16.5483 41.481 14.5743 41.3885C12.606 41.296 11.2647 40.9852 10.0844 40.5283C8.84921 40.0648 7.73033 39.3368 6.8062 38.3952C5.86535 37.4705 5.13743 36.3518 4.67315 35.117C4.21435 33.9386 3.9054 32.5955 3.8129 30.6252C3.7241 28.6531 3.7019 28.026 3.7019 22.9995C3.7019 17.9731 3.7204 17.3459 3.8129 15.3738C3.9054 13.4017 4.21435 12.0623 4.67315 10.882C5.13609 9.64654 5.86419 8.52756 6.8062 7.60381C7.73059 6.66259 8.8494 5.93461 10.0844 5.47076C11.2629 5.01196 12.6041 4.70301 14.5743 4.61051C16.5483 4.52356 17.1754 4.49951 22.2019 4.49951Z" fill="white"/>
</g>
</svg>
